<svg width="132" height="30" viewBox="0 0 132 30" xmlns="http://www.w3.org/2000/svg" fill="none">
  <!-- CART ICON (LEFT) - unchanged -->
  <g transform="translate(4,3)">
    <path d="M12 0C5.4 0 0 5.4 0 12s5.4 12 12 12 12-5.4 12-12S18.6 0 12 0Z" fill="#4FBF8B"/>
    <path d="M6.3 8.6h2.1l1.4 4.6h6.5l1.3-2.8c.2-.4-.1-.8-.5-.8H9.4L9 8.3c-.1-.3-.4-.5-.7-.5H6.3Z" fill="#FFFFFF"/>
    <circle cx="10.3" cy="17" r="1.3" fill="#FFFFFF"/>
    <circle cx="15.7" cy="17" r="1.3" fill="#FFFFFF"/>
  </g>

  <!-- TEXT: RENO CART (smaller, professional, rounded) -->
  <!-- scaled down and vertically shifted for a compact professional look -->
  <g transform="translate(36,18) scale(0.78)" fill="#2B3441" stroke="none">

    <!-- R -->
    <path d="M0-14h5.84c2.95 0 4.86 1.72 4.86 4.42 0 1.83-.97 3.3-2.67 3.86l3.25 4.38H8.28L5.6-4.9H3.04V0H0v-14Zm2.94 2.98v3.75h2.66c1.22 0 1.97-.68 1.97-1.92 0-1.24-.75-1.83-1.97-1.83H2.94Z"/>

    <!-- E -->
    <path d="M14-14h9.6v2.66h-6.38v2.38h5.3v2.66h-5.3v2.55h6.38V0H14v-14Z"/>

    <!-- N -->
    <path d="M27-14h2.88l6.05 7.86v-7.86h2.88V0h-2.88l-6.05-7.86V0h-2.88v-14Z"/>

    <!-- O -->
    <path d="M42.6-7c0-3.76 2.92-6.82 6.52-6.82s6.52 3.06 6.52 6.82-2.92 6.82-6.52 6.82-6.52-3.06-6.52-6.82Zm2.87 0c0 2.07 1.62 3.74 3.62 3.74s3.62-1.67 3.62-3.74-1.62-3.74-3.62-3.74-3.62 1.67-3.62 3.74Z"/>

    <!-- small gap -->

    <!-- C -->
    <path d="M62.6-7c0-3.76 2.92-6.82 6.52-6.82 2 0 3.7.74 4.82 1.9l-1.9 1.9c-.67-.67-1.7-1.04-2.93-1.04-2 0-3.7 1.6-3.7 3.9s1.7 3.9 3.7 3.9c1.23 0 2.26-.37 2.93-1.04l1.9 1.9c-1.12 1.16-2.82 1.9-4.82 1.9-3.6 0-6.52-3.06-6.52-6.82Z"/>

    <!-- A -->
    <path d="M78.8 0l5-11.66h2.58l5 11.66h-2.6l-1-2.83h-5.04l-1 2.83h-2.58Zm4.5-4.72h3.35l-1.65-3.99-1.7 3.99Z"/>

    <!-- R (second) -->
    <path d="M96.1-14h5.84c2.95 0 4.86 1.72 4.86 4.42 0 1.83-.97 3.3-2.67 3.86l3.25 4.38h-3.12l-2.67-3.8h-2.56V0h-2.88v-14Z"/>

    <!-- T -->
    <path d="M112.6-11h-3.82v-2.66h10.48V-11h-3.82V0h-2.84V-11Z"/>

  </g>
</svg>
